{
  "accessors": [
    {
      "bufferView": 2,
      "componentType": 5126,
      "count": 65532,
      "max": [
        135.9945068359375,
        -164.0,
        461.43011474609375
      ],
      "min": [
        -20.0054931640625,
        -965.0,
        305.43011474609375
      ],
      "type": "VEC3"
    },
    {
      "bufferView": 2,
      "byteOffset": 786384,
      "componentType": 5126,
      "count": 65532,
      "max": [
        0.03347998112440109,
        0.9998668432235718,
        1.0
      ],
      "min": [
        -0.03347998112440109,
        0.0,
        -1.0
      ],
      "type": "VEC3"
    },
    {
      "bufferView": 1,
      "componentType": 5126,
      "count": 65532,
      "max": [
        3.994999885559082,
        3646.696044921875
      ],
      "min": [
        -1.997499942779541,
        -0.05000000074505806
      ],
      "type": "VEC2"
    },
    {
      "bufferView": 0,
      "componentType": 5125,
      "count": 312705,
      "type": "SCALAR"
    },
    {
      "bufferView": 2,
      "byteOffset": 1572768,
      "componentType": 5126,
      "count": 65532,
      "max": [
        135.9945068359375,
        -164.0,
        461.43011474609375
      ],
      "min": [
        -20.0054931640625,
        -601.71875,
        305.43011474609375
      ],
      "type": "VEC3"
    },
    {
      "bufferView": 2,
      "byteOffset": 2359152,
      "componentType": 5126,
      "count": 65532,
      "max": [
        1.0,
        0.9998668432235718,
        1.0
      ],
      "min": [
        -1.0,
        -0.9998668432235718,
        -1.0
      ],
      "type": "VEC3"
    },
    {
      "bufferView": 1,
      "byteOffset": 524256,
      "componentType": 5126,
      "count": 65532,
      "max": [
        3.994999885559082,
        1990.7257080078125
      ],
      "min": [
        -43.61328125,
        -24.504423141479492
      ],
      "type": "VEC2"
    },
    {
      "bufferView": 0,
      "byteOffset": 1250820,
      "componentType": 5125,
      "count": 294894,
      "type": "SCALAR"
    },
    {
      "bufferView": 2,
      "byteOffset": 3145536,
      "componentType": 5126,
      "count": 65532,
      "max": [
        135.9945068359375,
        -165.0,
        461.43011474609375
      ],
      "min": [
        -20.0054931640625,
        -965.0,
        305.43011474609375
      ],
      "type": "VEC3"
    },
    {
      "bufferView": 2,
      "byteOffset": 3931920,
      "componentType": 5126,
      "count": 65532,
      "max": [
        1.0,
        0.0,
        1.0
      ],
      "min": [
        -1.0,
        -0.9998668432235718,
        -1.0
      ],
      "type": "VEC3"
    },
    {
      "bufferView": 1,
      "byteOffset": 1048512,
      "componentType": 5126,
      "count": 65532,
      "max": [
        3.994999885559082,
        3600.39990234375
      ],
      "min": [
        -80.00000762939453,
        -24.504423141479492
      ],
      "type": "VEC2"
    },
    {
      "bufferView": 0,
      "byteOffset": 2430396,
      "componentType": 5125,
      "count": 286083,
      "type": "SCALAR"
    },
    {
      "bufferView": 2,
      "byteOffset": 4718304,
      "componentType": 5126,
      "count": 54728,
      "max": [
        135.9936981201172,
        -164.0,
        461.4294128417969
      ],
      "min": [
        -20.0054931640625,
        -965.0,
        305.43011474609375
      ],
      "type": "VEC3"
    },
    {
      "bufferView": 2,
      "byteOffset": 5375040,
      "componentType": 5126,
      "count": 54728,
      "max": [
        1.0,
        0.9998668432235718,
        1.0
      ],
      "min": [
        -1.0,
        -0.9998668432235718,
        -1.0
      ],
      "type": "VEC3"
    },
    {
      "bufferView": 1,
      "byteOffset": 1572768,
      "componentType": 5126,
      "count": 54728,
      "max": [
        80.0999984741211,
        3646.696044921875
      ],
      "min": [
        0.0,
        -11.953760147094727
      ],
      "type": "VEC2"
    },
    {
      "bufferView": 0,
      "byteOffset": 3574728,
      "componentType": 5125,
      "count": 217170,
      "type": "SCALAR"
    },
    {
      "bufferView": 2,
      "byteOffset": 6031776,
      "componentType": 5126,
      "count": 8438,
      "max": [
        96.0426025390625,
        -64.81754302978516,
        421.47821044921875
      ],
      "min": [
        19.9464111328125,
        -1065.1824951171875,
        265.3901062011719
      ],
      "type": "VEC3"
    },
    {
      "bufferView": 2,
      "byteOffset": 6133032,
      "componentType": 5126,
      "count": 8438,
      "max": [
        1.0,
        1.0,
        1.0
      ],
      "min": [
        -1.0,
        -1.0,
        -1.0
      ],
      "type": "VEC3"
    },
    {
      "bufferView": 1,
      "byteOffset": 2010592,
      "componentType": 5126,
      "count": 8438,
      "max": [
        95.0999984741211,
        12.265528678894043
      ],
      "min": [
        -100.0,
        -11.953760147094727
      ],
      "type": "VEC2"
    },
    {
      "bufferView": 0,
      "byteOffset": 4443408,
      "componentType": 5125,
      "count": 32058,
      "type": "SCALAR"
    },
    {
      "bufferView": 2,
      "byteOffset": 6234288,
      "componentType": 5126,
      "count": 10755,
      "max": [
        102.9945068359375,
        -65.0,
        265.3901062011719
      ],
      "min": [
        12.994507789611816,
        -155.0,
        260.3901062011719
      ],
      "type": "VEC3"
    },
    {
      "bufferView": 2,
      "byteOffset": 6363348,
      "componentType": 5126,
      "count": 10755,
      "max": [
        1.0,
        1.0,
        1.0
      ],
      "min": [
        -1.0,
        -1.0,
        -1.0
      ],
      "type": "VEC3"
    },
    {
      "bufferView": 1,
      "byteOffset": 2078096,
      "componentType": 5126,
      "count": 10755,
      "max": [
        4.480000019073486,
        14.137166976928711
      ],
      "min": [
        -4.480000019073486,
        -14.344831466674805
      ],
      "type": "VEC2"
    },
    {
      "bufferView": 0,
      "byteOffset": 4571640,
      "componentType": 5125,
      "count": 44310,
      "type": "SCALAR"
    },
    {
      "bufferView": 2,
      "byteOffset": 6492408,
      "componentType": 5126,
      "count": 5893,
      "max": [
        71.9945068359375,
        -1006.0,
        348.03802490234375
      ],
      "min": [
        43.9945068359375,
        -1034.0,
        265.3901062011719
      ],
      "type": "VEC3"
    },
    {
      "bufferView": 2,
      "byteOffset": 6563124,
      "componentType": 5126,
      "count": 5893,
      "max": [
        1.0,
        1.0,
        1.0
      ],
      "min": [
        -1.0,
        -1.0,
        -1.0
      ],
      "type": "VEC3"
    },
    {
      "bufferView": 1,
      "byteOffset": 2164136,
      "componentType": 5126,
      "count": 5893,
      "max": [
        7.5,
        6.660175800323486
      ],
      "min": [
        -100.0,
        -4.398230075836182
      ],
      "type": "VEC2"
    },
    {
      "bufferView": 0,
      "byteOffset": 4748880,
      "componentType": 5125,
      "count": 22236,
      "type": "SCALAR"
    },
    {
      "bufferView": 2,
      "byteOffset": 6633840,
      "componentType": 5126,
      "count": 7713,
      "max": [
        102.9945068359375,
        -975.0,
        265.3901062011719
      ],
      "min": [
        12.994507789611816,
        -1065.0,
        260.3901062011719
      ],
      "type": "VEC3"
    },
    {
      "bufferView": 2,
      "byteOffset": 6726396,
      "componentType": 5126,
      "count": 7713,
      "max": [
        1.0,
        1.0,
        1.0
      ],
      "min": [
        -1.0,
        -1.0,
        -1.0
      ],
      "type": "VEC3"
    },
    {
      "bufferView": 1,
      "byteOffset": 2211280,
      "componentType": 5126,
      "count": 7713,
      "max": [
        4.480000019073486,
        14.137166976928711
      ],
      "min": [
        -4.480000019073486,
        -14.344831466674805
      ],
      "type": "VEC2"
    },
    {
      "bufferView": 0,
      "byteOffset": 4837824,
      "componentType": 5125,
      "count": 34668,
      "type": "SCALAR"
    }
  ],
  "asset": {
    "extras": {
      "author": "vareladesign (https://sketchfab.com/vareladesign)",
      "license": "CC-BY-4.0 (http://creativecommons.org/licenses/by/4.0/)",
      "source": "https://sketchfab.com/3d-models/vd-4608-3d-268c3657a2124caaa0e7fdfb20acf3cb",
      "title": "VD 4608 3D"
    },
    "generator": "Sketchfab-16.21.0",
    "version": "2.0"
  },
  "bufferViews": [
    {
      "buffer": 0,
      "byteLength": 4976496,
      "name": "floatBufferViews",
      "target": 34963
    },
    {
      "buffer": 0,
      "byteLength": 2272984,
      "byteOffset": 4976496,
      "byteStride": 8,
      "name": "floatBufferViews",
      "target": 34962
    },
    {
      "buffer": 0,
      "byteLength": 6818952,
      "byteOffset": 7249480,
      "byteStride": 12,
      "name": "floatBufferViews",
      "target": 34962
    }
  ],
  "buffers": [
    {
      "byteLength": 14068432,
      "uri": "scene.bin"
    }
  ],
  "materials": [
    {
      "doubleSided": true,
      "name": "254254255",
      "pbrMetallicRoughness": {
        "metallicFactor": 0.0,
        "roughnessFactor": 0.6
      }
    },
    {
      "doubleSided": true,
      "name": "255255255",
      "pbrMetallicRoughness": {
        "metallicFactor": 0.0,
        "roughnessFactor": 0.6
      }
    }
  ],
  "meshes": [
    {
      "name": "Object_0",
      "primitives": [
        {
          "attributes": {
            "NORMAL": 1,
            "POSITION": 0,
            "TEXCOORD_0": 2
          },
          "indices": 3,
          "material": 0,
          "mode": 4
        }
      ]
    },
    {
      "name": "Object_1",
      "primitives": [
        {
          "attributes": {
            "NORMAL": 5,
            "POSITION": 4,
            "TEXCOORD_0": 6
          },
          "indices": 7,
          "material": 0,
          "mode": 4
        }
      ]
    },
    {
      "name": "Object_2",
      "primitives": [
        {
          "attributes": {
            "NORMAL": 9,
            "POSITION": 8,
            "TEXCOORD_0": 10
          },
          "indices": 11,
          "material": 0,
          "mode": 4
        }
      ]
    },
    {
      "name": "Object_3",
      "primitives": [
        {
          "attributes": {
            "NORMAL": 13,
            "POSITION": 12,
            "TEXCOORD_0": 14
          },
          "indices": 15,
          "material": 0,
          "mode": 4
        }
      ]
    },
    {
      "name": "Object_4",
      "primitives": [
        {
          "attributes": {
            "NORMAL": 17,
            "POSITION": 16,
            "TEXCOORD_0": 18
          },
          "indices": 19,
          "material": 1,
          "mode": 4
        }
      ]
    },
    {
      "name": "Object_5",
      "primitives": [
        {
          "attributes": {
            "NORMAL": 21,
            "POSITION": 20,
            "TEXCOORD_0": 22
          },
          "indices": 23,
          "material": 1,
          "mode": 4
        }
      ]
    },
    {
      "name": "Object_6",
      "primitives": [
        {
          "attributes": {
            "NORMAL": 25,
            "POSITION": 24,
            "TEXCOORD_0": 26
          },
          "indices": 27,
          "material": 1,
          "mode": 4
        }
      ]
    },
    {
      "name": "Object_7",
      "primitives": [
        {
          "attributes": {
            "NORMAL": 29,
            "POSITION": 28,
            "TEXCOORD_0": 30
          },
          "indices": 31,
          "material": 1,
          "mode": 4
        }
      ]
    }
  ],
  "nodes": [
    {
      "children": [
        1
      ],
      "matrix": [
        1.0,
        0.0,
        0.0,
        0.0,
        0.0,
        2.220446049250313e-16,
        -1.0,
        0.0,
        0.0,
        1.0,
        2.220446049250313e-16,
        0.0,
        0.0,
        0.0,
        0.0,
        1.0
      ],
      "name": "Sketchfab_model"
    },
    {
      "children": [
        2,
        3,
        4,
        5,
        6,
        7,
        8,
        9
      ],
      "name": "VD 4608.obj.cleaner.materialmerger.gles"
    },
    {
      "mesh": 0,
      "name": "Object_2"
    },
    {
      "mesh": 1,
      "name": "Object_3"
    },
    {
      "mesh": 2,
      "name": "Object_4"
    },
    {
      "mesh": 3,
      "name": "Object_5"
    },
    {
      "mesh": 4,
      "name": "Object_6"
    },
    {
      "mesh": 5,
      "name": "Object_7"
    },
    {
      "mesh": 6,
      "name": "Object_8"
    },
    {
      "mesh": 7,
      "name": "Object_9"
    }
  ],
  "scene": 0,
  "scenes": [
    {
      "name": "Sketchfab_Scene",
      "nodes": [
        0
      ]
    }
  ]
}
